<?xml version="1.0" standalone="no"?>
<!DOCTYPE svg PUBLIC "-//W3C//DTD SVG 20010904//EN"
 "http://www.w3.org/TR/2001/REC-SVG-20010904/DTD/svg10.dtd">
<svg version="1.0" xmlns="http://www.w3.org/2000/svg"
 width="30.000000pt" height="30.000000pt" viewBox="0 0 30.000000 30.000000"
 preserveAspectRatio="xMidYMid meet">

<g transform="translate(0.000000,30.000000) scale(0.100000,-0.100000)"
fill="#000000" stroke="none">
<path d="M105 260 c-44 -18 -70 -59 -70 -111 0 -42 5 -53 33 -81 28 -28 39
-33 82 -33 42 0 54 5 81 31 33 33 51 105 30 118 -7 5 -11 -7 -11 -35 0 -63
-37 -99 -101 -99 -40 0 -51 4 -73 31 -19 23 -26 42 -26 74 0 57 41 95 101 95
24 0 38 4 34 10 -7 12 -52 12 -80 0z"/>
<path d="M240 236 c-6 -8 -19 -12 -28 -9 -15 6 -15 5 -3 -10 13 -17 15 -16 38
4 12 13 23 24 23 26 0 8 -19 1 -30 -11z"/>
<path d="M110 205 c-7 -8 -10 -29 -7 -47 3 -22 -1 -39 -11 -50 -8 -10 -10 -18
-4 -18 6 0 14 5 17 10 8 13 82 13 90 0 3 -5 11 -10 17 -10 6 0 4 8 -4 18 -10
11 -14 28 -11 50 6 40 -10 62 -47 62 -15 0 -33 -7 -40 -15z m70 -10 c26 -32
-13 -81 -47 -59 -23 14 -28 41 -13 59 16 19 44 19 60 0z"/>
</g>
</svg>
