<?xml version="1.0" standalone="no"?>
<!DOCTYPE svg PUBLIC "-//W3C//DTD SVG 20010904//EN"
 "http://www.w3.org/TR/2001/REC-SVG-20010904/DTD/svg10.dtd">
<svg version="1.0" xmlns="http://www.w3.org/2000/svg"
 width="30.000000pt" height="30.000000pt" viewBox="0 0 30.000000 30.000000"
 preserveAspectRatio="xMidYMid meet">

<g transform="translate(0.000000,30.000000) scale(0.100000,-0.100000)"
fill="#000000" stroke="none">
<path d="M166 285 c-10 -10 -36 -15 -85 -15 -38 0 -73 -4 -76 -10 -4 -6 21
-10 67 -10 61 0 76 -3 91 -20 9 -11 24 -20 32 -20 8 0 23 9 32 20 10 11 30 20
46 20 16 0 26 4 22 10 -3 6 -17 10 -31 10 -14 0 -32 7 -40 15 -9 8 -22 15 -29
15 -7 0 -20 -7 -29 -15z m52 -28 c4 -20 -25 -34 -40 -19 -15 15 -1 44 19 40
10 -2 19 -11 21 -21z"/>
<path d="M70 175 c-7 -8 -25 -15 -41 -15 -16 0 -29 -4 -29 -10 0 -5 13 -10 29
-10 16 0 34 -7 41 -15 16 -19 54 -19 70 0 9 11 33 15 86 15 43 0 74 4 74 10 0
6 -31 10 -74 10 -53 0 -77 4 -86 15 -16 19 -54 19 -70 0z m58 -28 c2 -11 -3
-17 -17 -17 -23 0 -35 15 -26 31 10 15 39 6 43 -14z"/>
<path d="M165 70 c-15 -17 -31 -20 -92 -20 -47 0 -72 -4 -68 -10 3 -6 39 -10
80 -10 55 0 74 -4 79 -15 7 -19 40 -19 60 0 8 8 26 15 40 15 14 0 28 5 31 10
4 6 -6 10 -23 10 -16 0 -37 9 -47 20 -10 11 -23 20 -30 20 -7 0 -20 -9 -30
-20z m53 -23 c4 -20 -25 -34 -40 -19 -15 15 -1 44 19 40 10 -2 19 -11 21 -21z"/>
</g>
</svg>
