<?xml version="1.0" standalone="no"?>
<!DOCTYPE svg PUBLIC "-//W3C//DTD SVG 20010904//EN"
 "http://www.w3.org/TR/2001/REC-SVG-20010904/DTD/svg10.dtd">
<svg version="1.0" xmlns="http://www.w3.org/2000/svg"
 width="33.000000pt" height="30.000000pt" viewBox="0 0 33.000000 30.000000"
 preserveAspectRatio="xMidYMid meet">

<g transform="translate(0.000000,30.000000) scale(0.100000,-0.100000)"
fill="#000000" stroke="none">
<path d="M2 243 c-2 -57 0 -63 18 -63 18 0 20 -7 20 -84 l0 -84 30 -4 c24 -4
30 -1 30 14 0 16 10 18 104 18 101 0 105 -1 109 -22 4 -20 4 -19 6 5 l1 27
-115 0 c-96 0 -115 -3 -115 -15 0 -8 -9 -15 -20 -15 -17 0 -20 7 -20 40 0 33
3 40 20 40 11 0 20 -4 20 -10 0 -6 45 -10 115 -10 l115 0 0 30 0 30 -115 0
c-70 0 -115 -4 -115 -10 0 -5 -9 -10 -20 -10 -16 0 -20 7 -20 30 l0 30 135 0
135 0 -2 63 -2 62 -3 -57 -4 -58 -149 0 -149 0 -4 58 -3 57 -2 -62z m308 -133
c0 -19 -7 -20 -105 -20 -98 0 -105 1 -105 20 0 19 7 20 105 20 98 0 105 -1
105 -20z"/>
<path d="M98 263 c34 -2 90 -2 125 0 34 2 6 3 -63 3 -69 0 -97 -1 -62 -3z"/>
<path d="M68 223 c17 -2 47 -2 65 0 17 2 3 4 -33 4 -36 0 -50 -2 -32 -4z"/>
</g>
</svg>
